<?xml version="1.0" standalone="no"?><!DOCTYPE svg PUBLIC "-//W3C//DTD SVG 1.1//EN" "http://www.w3.org/Graphics/SVG/1.1/DTD/svg11.dtd"><svg t="1710926639231" class="icon" viewBox="0 0 1024 1024" version="1.1" xmlns="http://www.w3.org/2000/svg" p-id="4270" xmlns:xlink="http://www.w3.org/1999/xlink" width="200" height="200"><path d="M217.97888 969.66656c-10.72128 0-20.24448-4.28032-26.80832-12.06272-5.45792-6.47168-11.27424-18.19648-8.00768-37.39648l43.2128-253.68576c2.65216-15.57504-5.24288-39.79264-16.57856-50.81088L25.32352 436.28544c-13.49632-13.12768-18.61632-28.76416-14.03904-42.89536 4.57728-14.1312 17.88928-23.808 36.51584-26.54208l254.62784-37.29408c15.63648-2.29376 36.22912-17.28512 43.20256-31.46752L459.264 67.19488c8.31488-16.90624 21.61664-26.60352 36.49536-26.60352 14.848 0 28.14976 9.66656 36.48512 26.5216l114.14528 230.63552c7.02464 14.16192 27.648 29.11232 43.28448 31.36512l254.70976 36.7104c18.6368 2.68288 31.96928 12.32896 36.57728 26.44992 4.608 14.1312-0.48128 29.77792-13.94688 42.93632L782.94016 615.05536c-11.30496 11.03872-19.1488 35.2768-16.45568 50.86208l43.78624 253.5936c3.31776 19.21024-2.48832 30.95552-7.936 37.43744-11.30496 13.43488-31.19104 15.9232-51.05664 5.51936L523.35616 842.97728c-13.33248-7.00416-40.1408-6.9632-53.4528 0.06144l-227.64544 120.0128c-8.3456 4.39296-16.51712 6.61504-24.27904 6.61504zM54.26176 407.296L238.36672 586.3424c21.13536 20.57216 33.35168 57.98912 28.39552 87.05024L223.6416 926.55616l227.1744-119.7568c25.04704-13.19936 66.47808-13.23008 91.57632-0.1024l227.44064 119.2448-43.71456-253.06112c-5.0176-29.07136 7.10656-66.52928 28.20096-87.12192l183.68512-179.456L683.8272 369.664c-29.184-4.20864-61.05088-27.31008-74.1376-53.73952L495.77984 85.76 382.38208 316.18048c-13.01504 26.44992-44.83072 49.63328-74.01472 53.9136L54.26176 407.296z" p-id="4271"></path></svg>